<svg width="84" height="84" viewBox="0 0 84 84" fill="none" xmlns="http://www.w3.org/2000/svg">
<path d="M72.9414 16.1336C71.1537 14.3451 69.0312 12.9263 66.6951 11.9584C64.359 10.9904 61.8551 10.4922 59.3264 10.4922C56.7977 10.4922 54.2938 10.9904 51.9576 11.9584C49.6215 12.9263 47.499 14.3451 45.7114 16.1336L42.0014 19.8436L38.2914 16.1336C34.6805 12.5227 29.783 10.4941 24.6764 10.4941C19.5698 10.4941 14.6723 12.5227 11.0614 16.1336C7.45047 19.7445 5.42188 24.642 5.42188 29.7486C5.42187 34.8552 7.45047 39.7527 11.0614 43.3636L14.7714 47.0736L42.0014 74.3036L69.2314 47.0736L72.9414 43.3636C74.7299 41.5759 76.1486 39.4534 77.1166 37.1173C78.0846 34.7812 78.5828 32.2773 78.5828 29.7486C78.5828 27.2199 78.0846 24.7159 77.1166 22.3798C76.1486 20.0437 74.7299 17.9212 72.9414 16.1336Z" fill="#D0DFCE" stroke="#D0DFCE" stroke-width="5" stroke-linecap="round" stroke-linejoin="round"/>
</svg>
