<svg width="37" height="37" viewBox="0 0 37 37" fill="none" xmlns="http://www.w3.org/2000/svg">
<g clip-path="url(#clip0_18_55)">
<path d="M32.1314 7.1099C31.3439 6.32211 30.409 5.69719 29.38 5.27082C28.351 4.84445 27.2481 4.625 26.1343 4.625C25.0204 4.625 23.9175 4.84445 22.8885 5.27082C21.8595 5.69719 20.9246 6.32211 20.1372 7.1099L18.503 8.74406L16.8689 7.1099C15.2783 5.51937 13.1211 4.62582 10.8718 4.62582C8.62244 4.62582 6.46522 5.51937 4.8747 7.1099C3.28417 8.70042 2.39063 10.8576 2.39062 13.107C2.39062 15.3563 3.28417 17.5135 4.8747 19.1041L6.50886 20.7382L18.503 32.7324L30.4972 20.7382L32.1314 19.1041C32.9191 18.3167 33.5441 17.3817 33.9704 16.3527C34.3968 15.3237 34.6163 14.2208 34.6163 13.107C34.6163 11.9931 34.3968 10.8902 33.9704 9.86123C33.5441 8.83223 32.9191 7.89731 32.1314 7.1099Z" fill="#E4DACD" stroke="#E4DACD" stroke-width="5" stroke-linecap="round" stroke-linejoin="round"/>
</g>
<defs>
<clipPath id="clip0_18_55">
<rect width="37" height="37" fill="white"/>
</clipPath>
</defs>
</svg>
